<svg width="72" height="72" viewBox="0 0 72 72" fill="none" xmlns="http://www.w3.org/2000/svg">
<g id="bbq" clip-path="url(#clip0_1_445)">
<path id="Vector" d="M26.7193 14.5118C25.5685 15.2908 23.9919 16.3575 23.9919 18.5306C23.9919 19.3074 24.6215 19.9369 25.3982 19.9369C26.1749 19.9369 26.8044 19.3074 26.8044 18.5306C26.8044 17.9116 27.2357 17.5583 28.2953 16.8415C29.4467 16.0626 31.0232 14.9958 31.0232 12.8221C31.0232 10.6485 29.4467 9.58228 28.2953 8.80334C27.2357 8.08649 26.8044 7.73328 26.8044 7.1142C26.8044 6.49512 27.2357 6.14191 28.2953 5.42505C29.4467 4.64612 31.0232 3.5799 31.0232 1.40625C31.0232 0.630066 30.3931 0 29.6169 0C28.8402 0 28.2107 0.630066 28.2107 1.40625C28.2107 2.02533 27.7789 2.37854 26.7193 3.0954C25.5685 3.87433 23.9919 4.94055 23.9919 7.1142C23.9919 9.28784 25.5679 10.3541 26.7193 11.133C27.7789 11.8499 28.2107 12.2031 28.2107 12.8227C28.2107 13.4418 27.7789 13.795 26.7193 14.5118Z" fill="white"/>
<path id="Vector_2" d="M36.4203 14.5118C35.2694 15.2908 33.6929 16.357 33.6929 18.5306C33.6929 19.3074 34.3224 19.9369 35.0992 19.9369C35.8759 19.9369 36.5054 19.3074 36.5054 18.5306C36.5054 17.9116 36.9366 17.5583 37.9962 16.8415C39.1476 16.0626 40.7242 14.9958 40.7242 12.8221C40.7242 10.6485 39.1476 9.58228 37.9962 8.80334C36.9366 8.08649 36.5049 7.73328 36.5049 7.1142C36.5049 6.49512 36.9366 6.14191 37.9962 5.42505C39.1476 4.64612 40.7242 3.57935 40.7242 1.40625C40.7242 0.629517 40.0941 0 39.3179 0C38.5412 0 37.9117 0.629517 37.9117 1.40625C37.9117 2.02478 37.4799 2.37854 36.4203 3.0954C35.2689 3.87433 33.6924 4.94055 33.6924 7.1142C33.6924 9.28729 35.2689 10.3541 36.4203 11.1324C37.4799 11.8499 37.9117 12.2031 37.9117 12.8221C37.9117 13.4418 37.4804 13.795 36.4203 14.5118Z" fill="white"/>
<path id="Vector_3" d="M46.1212 14.5118C44.9703 15.2908 43.3938 16.3575 43.3938 18.5306C43.3938 19.3074 44.0233 19.9369 44.8 19.9369C45.5768 19.9369 46.2063 19.3074 46.2063 18.5306C46.2063 17.9116 46.6381 17.5583 47.6977 16.8415C48.8485 16.0626 50.425 14.9958 50.425 12.8221C50.425 10.6485 48.8485 9.58228 47.6977 8.80334C46.6381 8.08649 46.2063 7.73328 46.2063 7.1142C46.2063 6.49512 46.6381 6.14191 47.6977 5.42505C48.8485 4.64612 50.425 3.5799 50.425 1.40625C50.425 0.630066 49.795 0 49.0188 0C48.2421 0 47.6125 0.630066 47.6125 1.40625C47.6125 2.02533 47.1808 2.37854 46.1212 3.0954C44.9703 3.87433 43.3938 4.94055 43.3938 7.1142C43.3938 9.28784 44.9703 10.3541 46.1212 11.133C47.1808 11.8499 47.6125 12.2031 47.6125 12.8227C47.6125 13.4418 47.1808 13.795 46.1212 14.5118Z" fill="white"/>
<path id="Vector_4" d="M67.1364 32.2659H61.992C62.1541 31.2656 62.2596 30.2471 62.3046 29.2128C63.9245 28.647 65.0902 27.1045 65.0902 25.2939C65.0902 23.0055 63.228 21.1433 60.939 21.1433H10.9787C8.68967 21.1433 6.82803 23.0055 6.82803 25.2939C6.82803 27.1045 7.99313 28.647 9.61307 29.2128C9.65866 30.2471 9.76413 31.2656 9.92563 32.2653H4.78128C4.00455 32.2653 3.37503 32.8954 3.37503 33.6716C3.37503 34.4483 4.00455 35.0778 4.78128 35.0778H10.5409C12.4783 42.0646 17.2249 47.8945 23.4833 51.2689L20.1561 57.5135C20.1539 57.5174 20.1523 57.5207 20.1501 57.5245L13.9356 69.1876H11.7961C11.0193 69.1876 10.3898 69.8177 10.3898 70.5939C10.3898 71.3706 11.0193 72.0001 11.7961 72.0001H17.7633C18.54 72.0001 19.1695 71.3706 19.1695 70.5939C19.1695 69.8177 18.54 69.1876 17.7633 69.1876H17.1222L22.2342 59.5949H50.0186L55.13 69.1876H54.1544C53.3782 69.1876 52.7481 69.8177 52.7481 70.5939C52.7481 71.3706 53.3782 72.0001 54.1544 72.0001H60.1216C60.8983 72.0001 61.5279 71.3706 61.5279 70.5939C61.5279 69.8177 60.8983 69.1876 60.1216 69.1876H58.3171L52.1016 57.524C52.0999 57.5207 52.0983 57.5174 52.0966 57.5141L48.6931 51.1272C54.8235 47.7324 59.4663 41.9679 61.3768 35.0784H67.1364C67.9126 35.0784 68.5426 34.4483 68.5426 33.6721C68.5426 32.8954 67.9131 32.2659 67.1364 32.2659ZM23.7327 56.7824L26.0299 52.4703C29.0968 53.7211 32.4482 54.4121 35.9588 54.4121C39.5744 54.4121 43.0219 53.6804 46.1624 52.3577L48.5201 56.7824H23.7327ZM35.9588 51.5996C23.4394 51.5996 13.1688 41.785 12.4393 29.4451H59.4784C58.7489 41.785 48.4789 51.5996 35.9588 51.5996ZM60.939 26.6326H10.9787C10.2409 26.6326 9.64053 26.0322 9.64053 25.2939C9.64053 24.5562 10.2409 23.9558 10.9787 23.9558H60.939C61.6773 23.9558 62.2777 24.5562 62.2777 25.2939C62.2777 26.0322 61.6773 26.6326 60.939 26.6326Z" fill="white"/>
<path id="Vector_5" d="M35.9588 49.1246C43.2625 49.1246 49.9461 45.4173 53.838 39.2078C54.2505 38.5498 54.0516 37.6818 53.393 37.2693C52.7349 36.8568 51.867 37.0562 51.455 37.7142C48.0806 43.0975 42.288 46.3121 35.9588 46.3121C35.1821 46.3121 34.5526 46.9417 34.5526 47.7184C34.5526 48.4946 35.1821 49.1246 35.9588 49.1246Z" fill="white"/>
<path id="Vector_6" d="M53.6116 33.8561C53.8407 34.4049 54.4037 34.7592 54.9981 34.7213C55.5617 34.685 56.0566 34.3043 56.2401 33.7704C56.4368 33.1986 56.2297 32.5388 55.7397 32.184C55.287 31.8555 54.6674 31.8258 54.1873 32.1126C53.5973 32.4652 53.3474 33.2211 53.6116 33.8561Z" fill="white"/>
</g>
<defs>
<clipPath id="clip0_1_445">
<rect width="72" height="72" fill="white"/>
</clipPath>
</defs>
</svg>
