<svg width="12" height="12" viewBox="0 0 12 12" fill="none" xmlns="http://www.w3.org/2000/svg">
<g id="chat" clip-path="url(#clip0_1_196)">
<path id="Vector" d="M10.2422 3.51562H9.1875V1.75781C9.1875 0.788544 8.39896 0 7.42969 0H1.75781C0.788544 0 0 0.788544 0 1.75781V5.27344C0 6.12231 0.604889 6.83258 1.40625 6.99591V8.08594C1.40625 8.21558 1.47766 8.33469 1.59192 8.39594C1.70599 8.45691 1.8447 8.4505 1.95282 8.37845L2.8125 7.80533V8.78906C2.8125 9.75833 3.60104 10.5469 4.57031 10.5469H8.02341L10.0428 11.9379C10.1505 12.0122 10.2903 12.0203 10.4057 11.9596C10.5213 11.8989 10.5938 11.7791 10.5938 11.6484V10.5115C11.3951 10.3482 12 9.63794 12 8.78906V5.27344C12 4.30417 11.2115 3.51562 10.2422 3.51562ZM1.75781 6.32812C1.17627 6.32812 0.703125 5.85498 0.703125 5.27344V1.75781C0.703125 1.17627 1.17627 0.703125 1.75781 0.703125H7.42969C8.01123 0.703125 8.48438 1.17627 8.48438 1.75781V5.27344C8.48438 5.85498 8.01123 6.32812 7.42969 6.32812H3.86719C3.79779 6.32812 3.72995 6.34863 3.67218 6.38718L2.10938 7.42905V6.67969C2.10938 6.4855 1.952 6.32812 1.75781 6.32812ZM11.2969 8.78906C11.2969 9.37061 10.8237 9.84375 10.2422 9.84375C10.048 9.84375 9.89062 10.0011 9.89062 10.1953V10.9794L8.33231 9.90582C8.27362 9.86536 8.20404 9.84375 8.13281 9.84375H4.57031C3.98877 9.84375 3.51562 9.37061 3.51562 8.78906V7.33658L3.97366 7.03125H7.42969C8.39896 7.03125 9.1875 6.24271 9.1875 5.27344V4.21875H10.2422C10.8237 4.21875 11.2969 4.69189 11.2969 5.27344V8.78906Z" fill="white" fill-opacity="0.5"/>
<path id="Vector_2" d="M2.46094 2.46094H5.32031C5.5145 2.46094 5.67188 2.30356 5.67188 2.10938C5.67188 1.91519 5.5145 1.75781 5.32031 1.75781H2.46094C2.26675 1.75781 2.10938 1.91519 2.10938 2.10938C2.10938 2.30356 2.26675 2.46094 2.46094 2.46094Z" fill="white" fill-opacity="0.5"/>
<path id="Vector_3" d="M2.46094 3.86719H5.32031C5.5145 3.86719 5.67188 3.70981 5.67188 3.51562C5.67188 3.32144 5.5145 3.16406 5.32031 3.16406H2.46094C2.26675 3.16406 2.10938 3.32144 2.10938 3.51562C2.10938 3.70981 2.26675 3.86719 2.46094 3.86719Z" fill="white" fill-opacity="0.5"/>
<path id="Vector_4" d="M2.46094 5.27344H6.72656C6.92075 5.27344 7.07812 5.11606 7.07812 4.92188C7.07812 4.72769 6.92075 4.57031 6.72656 4.57031H2.46094C2.26675 4.57031 2.10938 4.72769 2.10938 4.92188C2.10938 5.11606 2.26675 5.27344 2.46094 5.27344Z" fill="white" fill-opacity="0.5"/>
<path id="Vector_5" d="M7.07812 2.10938C7.07812 2.30356 6.92075 2.46094 6.72656 2.46094C6.53238 2.46094 6.375 2.30356 6.375 2.10938C6.375 1.91519 6.53238 1.75781 6.72656 1.75781C6.92075 1.75781 7.07812 1.91519 7.07812 2.10938Z" fill="white" fill-opacity="0.5"/>
<path id="Vector_6" d="M7.07812 3.51562C7.07812 3.70981 6.92075 3.86719 6.72656 3.86719C6.53238 3.86719 6.375 3.70981 6.375 3.51562C6.375 3.32144 6.53238 3.16406 6.72656 3.16406C6.92075 3.16406 7.07812 3.32144 7.07812 3.51562Z" fill="white" fill-opacity="0.5"/>
<path id="Vector_7" d="M9.53906 8.08594H5.32031C5.12613 8.08594 4.96875 8.24332 4.96875 8.4375C4.96875 8.63168 5.12613 8.78906 5.32031 8.78906H9.53906C9.73325 8.78906 9.89062 8.63168 9.89062 8.4375C9.89062 8.24332 9.73325 8.08594 9.53906 8.08594Z" fill="white" fill-opacity="0.5"/>
</g>
<defs>
<clipPath id="clip0_1_196">
<rect width="12" height="12" fill="white"/>
</clipPath>
</defs>
</svg>
