<svg width="20" height="20" viewBox="0 0 20 20" fill="none" xmlns="http://www.w3.org/2000/svg">
<g id="facebook-letter-logo">
<g id="Group">
<path id="Facebook" d="M7.35062 3.87348C7.35062 4.37748 7.35062 6.62708 7.35062 6.62708H5.33325V9.99419H7.35062V20.0001H11.4947V9.99447H14.2756C14.2756 9.99447 14.5361 8.37996 14.6623 6.61466C14.3004 6.61466 11.5104 6.61466 11.5104 6.61466C11.5104 6.61466 11.5104 4.65578 11.5104 4.31243C11.5104 3.96833 11.9622 3.50548 12.4088 3.50548C12.8546 3.50548 13.7953 3.50548 14.6667 3.50548C14.6667 3.04704 14.6667 1.46304 14.6667 0.000122082C13.5035 0.000122082 12.1801 0.000122082 11.5968 0.000122082C7.24819 -0.000110415 7.35062 3.37035 7.35062 3.87348Z" fill="white"/>
</g>
</g>
</svg>
