<svg width="64" height="57" viewBox="0 0 64 57" fill="none" xmlns="http://www.w3.org/2000/svg">
<g id="Group" opacity="0.1">
<path id="Vector" d="M25.7113 11.3792C27.3118 10.7166 27.983 8.83064 27.2602 7.30149L24.7303 2.05139C24.0075 0.573723 22.2521 -0.0894204 20.7033 0.573723C16.3148 2.40871 12.5459 4.80438 9.55138 7.70977C5.88572 11.1244 3.40752 15.0492 2.06516 19.3818C0.722807 23.7659 0 29.7291 0 37.3239V52.9722C0 54.6543 1.39399 56.0305 3.09775 56.0305H23.388C25.0917 56.0305 26.4857 54.6543 26.4857 52.9722V32.9403C26.4857 31.2577 25.0917 29.882 23.388 29.882H13.6817C13.785 24.7333 15.0241 20.6051 17.2957 17.4953C19.1544 14.9987 21.9424 12.9599 25.7113 11.3792Z" fill="white"/>
<path id="Vector_2" d="M62.1617 11.3795C63.7622 10.7169 64.4328 8.83094 63.7105 7.30179L61.1807 2.10319C60.4579 0.625008 58.7025 -0.0376242 57.1536 0.625008C52.8168 2.45999 49.099 4.85566 46.0534 7.71007C42.3872 11.1762 39.8579 15.101 38.515 19.4336C37.1726 23.7147 36.502 29.6789 36.502 37.3246V52.9729C36.502 54.655 37.896 56.0313 39.5997 56.0313H59.89C61.5938 56.0313 62.9877 54.655 62.9877 52.9729V32.9411C62.9877 31.2585 61.5938 29.8828 59.89 29.8828H50.1321C50.2353 24.7341 51.475 20.6059 53.7461 17.4961C55.6048 14.999 58.3927 12.9602 62.1617 11.3795Z" fill="white"/>
</g>
</svg>
