<svg width="12" height="11" viewBox="0 0 12 11" fill="none" xmlns="http://www.w3.org/2000/svg">
<path id="Vector" d="M5.5155 5.55859C5.3445 5.19466 5.25 4.77926 5.25 4.31944C5.25 3.85962 5.3445 3.39795 5.5155 2.96479C5.68613 2.53125 5.93325 2.12586 6.23887 1.77822C6.54412 1.43094 6.90788 1.14032 7.31137 0.937433C7.71525 0.733438 8.15925 0.617188 8.625 0.617188C9.09075 0.617188 9.53475 0.710484 9.93863 0.878937C10.3425 1.04776 10.7059 1.29174 11.0111 1.5931C11.316 1.89447 11.5639 2.25359 11.7345 2.65232C11.9059 3.05068 12 3.4894 12 3.94922C12 4.40904 11.9055 4.84776 11.7345 5.24612C11.5639 5.64485 11.3168 6.00397 11.0111 6.30534C10.7063 6.6067 6.40387 10.4445 6 10.6133C5.59613 10.4445 1.29375 6.6067 0.9885 6.30534C0.68325 6.00397 0.436125 5.64485 0.265125 5.24612C0.0945 4.84776 0 4.40904 0 3.94922C0 3.4894 0.0945 3.05068 0.265125 2.65232C0.436125 2.25359 0.682875 1.89447 0.9885 1.5931C1.29375 1.29174 1.6575 1.04776 2.06138 0.878937C2.46487 0.710484 2.90887 0.617188 3.375 0.617188C3.84113 0.617188 4.28513 0.733438 4.68863 0.936692C5.0925 1.14032 5.45587 1.43057 5.7615 1.77785C6.06675 2.12549 6.31387 2.53088 6.48487 2.96442C6.6555 3.39795 6.75 3.85962 6.75 4.31944C6.75 4.77926 6.6555 5.19466 6.48487 5.55859C6.31387 5.92252 6.0675 6.23536 5.7615 6.49082" fill="#FFB800"/>
</svg>
