<svg width="72" height="72" viewBox="0 0 72 72" fill="none" xmlns="http://www.w3.org/2000/svg">
<g id="hunter">
<g id="Group">
<g id="Group_2">
<path id="Vector" d="M43.6392 30.3698C43.0567 30.3698 42.5845 30.8418 42.5845 31.4244V31.7057C42.5845 32.2883 43.0567 32.7604 43.6392 32.7604C44.2216 32.7604 44.6939 32.2883 44.6939 31.7057V31.4244C44.6939 30.8418 44.2216 30.3698 43.6392 30.3698Z" fill="white"/>
</g>
</g>
<g id="Group_3">
<g id="Group_4">
<path id="Vector_2" d="M28.3605 30.3698C27.778 30.3698 27.3058 30.8418 27.3058 31.4244V31.7057C27.3058 32.2883 27.778 32.7604 28.3605 32.7604C28.943 32.7604 29.4152 32.2883 29.4152 31.7057V31.4244C29.4152 30.8418 28.943 30.3698 28.3605 30.3698Z" fill="white"/>
</g>
</g>
<g id="Group_5">
<g id="Group_6">
<path id="Vector_3" d="M61.7732 24.4605L55.0368 19.8488V18.9423C55.0368 9.20574 47.1156 1.28447 37.3791 1.28447H37.0546V1.05469C37.0546 0.472078 36.5823 0 35.9999 0C35.4174 0 34.9452 0.472078 34.9452 1.05469V1.28447H34.6208C28.8471 1.28447 23.4273 4.11652 20.1226 8.85994C19.7896 9.33778 19.9072 9.9952 20.3852 10.3282C20.8631 10.6609 21.5206 10.5438 21.8534 10.0657C24.7638 5.88797 29.5368 3.39384 34.6208 3.39384H37.379C45.9523 3.39384 52.9273 10.369 52.9273 18.9423V19.3494H46.0897C46.0861 19.3494 46.0825 19.35 46.0789 19.35H44.7272C44.1447 19.35 43.6725 19.8221 43.6725 20.4047C43.6725 20.9873 44.1447 21.4594 44.7272 21.4594H53.6553L60.3641 26.0522H55.5468H51.7653H20.2344H16.453H11.6358L18.3447 21.4594H40.5097C41.0922 21.4594 41.5644 20.9873 41.5644 20.4047C41.5644 19.8221 41.0922 19.35 40.5097 19.35H39.5265C39.5228 19.35 39.5193 19.3494 39.5156 19.3494H19.0724V18.9423C19.0724 17.0906 19.3943 15.2795 20.0292 13.5592C20.2309 13.0127 19.9513 12.4064 19.405 12.2046C18.8585 12.0026 18.252 12.2826 18.0504 12.8288C17.329 14.7836 16.9632 16.8404 16.9632 18.9423V19.8488L10.2257 24.4612C9.48841 24.9673 9.17102 25.8809 9.43582 26.7348C9.70061 27.5881 10.4788 28.1614 11.3724 28.1614H15.3985V28.9491C15.3985 29.6083 15.4657 30.2621 15.5963 30.9032C13.8461 31.7104 12.6603 33.491 12.6603 35.4781C12.6603 38.2548 14.9193 40.5139 17.6961 40.5139H21.2434C22.9916 43.7063 25.7185 46.2413 29.0249 47.7475V48.817L25.725 49.0094C25.2166 49.039 24.802 49.4276 24.7396 49.9328L24.6406 50.7319C24.3495 50.8359 24.0642 50.951 23.7851 51.0768C23.7579 51.0889 23.7311 51.1014 23.7041 51.1137C23.59 51.1661 23.4769 51.2204 23.365 51.2764C23.2989 51.3091 23.233 51.3423 23.1676 51.3764C23.1113 51.4059 23.0556 51.4364 22.9999 51.4668C21.1534 52.4663 19.6019 53.9519 18.5126 55.8018C18.4863 55.8465 18.4648 55.8931 18.4455 55.9405C17.461 57.6613 16.9044 59.6392 16.9044 61.7068V70.9453C16.9044 71.5279 17.3766 72 17.9591 72H20.3285H51.671H54.0404C54.6228 72 55.0951 71.5279 55.0951 70.9453V61.7071C55.0951 58.6281 53.9124 55.7459 51.7642 53.5556C51.7338 53.5247 51.704 53.4933 51.6734 53.4628C51.6379 53.4275 51.6046 53.3908 51.5688 53.3558C51.5446 53.3322 51.5194 53.3104 51.4937 53.2897C51.3263 53.1297 51.1559 52.9727 50.9785 52.8221C50.5347 52.4448 49.869 52.4992 49.492 52.9433C49.115 53.3873 49.1693 54.053 49.6132 54.4299C49.8635 54.6425 50.1015 54.867 50.3273 55.1021C50.3362 55.1112 50.3453 55.1202 50.3542 55.1295C50.4239 55.2026 50.4921 55.2772 50.5595 55.3524C50.5734 55.3679 50.587 55.3836 50.6008 55.3991C50.8898 55.7267 51.1563 56.0731 51.3978 56.4375C49.4695 61.2696 49.0746 65.7849 50.2186 69.8906H38.5993C40.681 67.6596 42.3896 65.0168 43.6341 62.0973L47.3081 65.2527C47.5037 65.4207 47.7485 65.5073 47.9955 65.5073C48.1656 65.5073 48.3369 65.4661 48.4936 65.3822C48.8775 65.1762 49.0954 64.7554 49.042 64.323L47.2603 49.9328C47.1977 49.4276 46.7833 49.0393 46.2749 49.0096L42.975 48.8173V47.7477C46.2821 46.241 49.0088 43.7057 50.7565 40.5141H54.3038C57.0806 40.5141 59.3396 38.2551 59.3396 35.4783C59.3396 33.4911 58.1539 31.7105 56.4037 30.9033C56.5344 30.2621 56.6016 29.6083 56.6016 28.9492V28.1616H60.6277C61.5212 28.1616 62.2996 27.5882 62.5644 26.7349C62.8289 25.8809 62.5115 24.9673 61.7732 24.4605ZM17.5078 28.1614H19.1797V28.1616V32.4394C19.1797 32.598 19.1828 32.7607 19.1875 32.9266C19.1886 32.964 19.1897 33.0013 19.191 33.0387C19.1928 33.0917 19.1938 33.1428 19.196 33.1972C19.1962 33.2024 19.1965 33.2076 19.1967 33.2128L19.2001 33.2785C19.2029 33.3319 19.2056 33.3852 19.2094 33.4389C19.2101 33.4552 19.2114 33.4721 19.2123 33.4887C19.2136 33.5098 19.2149 33.5309 19.2163 33.5521C19.2206 33.6315 19.2267 33.7098 19.233 33.7874C19.2243 33.7769 19.2152 33.7665 19.2066 33.7558C19.1657 33.7053 19.1263 33.6537 19.0868 33.6022C19.0546 33.5603 19.0218 33.5187 18.9906 33.4761C18.9518 33.4233 18.9146 33.3695 18.8772 33.3159C18.8471 33.2727 18.8166 33.2301 18.7875 33.1864C18.7508 33.1312 18.7158 33.075 18.6806 33.019C18.6531 32.9753 18.6248 32.932 18.5982 32.8875C18.5635 32.8298 18.5306 32.7707 18.4974 32.712C18.4725 32.6679 18.4468 32.6244 18.4226 32.5797C18.3894 32.5183 18.3583 32.4555 18.327 32.3931C18.3052 32.3499 18.2824 32.3073 18.2614 32.2637C18.2292 32.1967 18.1993 32.1285 18.1691 32.0602C18.1511 32.0199 18.1319 31.9801 18.1148 31.9395C18.0816 31.8613 18.0511 31.7818 18.0204 31.7024C18.0082 31.6707 17.9948 31.6396 17.983 31.6077C17.9415 31.4956 17.9024 31.3824 17.8661 31.268C17.6283 30.5191 17.5078 29.739 17.5078 28.9491V28.1614ZM17.6961 38.4047C16.0825 38.4047 14.7697 37.0919 14.7697 35.4783C14.7697 34.4115 15.3573 33.4471 16.2481 32.9369C16.2701 32.9858 16.2937 33.0339 16.3165 33.0825C16.334 33.1201 16.3513 33.158 16.3695 33.1954C16.4232 33.3065 16.4787 33.4166 16.5365 33.5254C16.5423 33.5363 16.5475 33.5472 16.5533 33.558C16.6173 33.6774 16.6841 33.795 16.753 33.9114C16.7726 33.9449 16.7933 33.9777 16.8134 34.0109C16.8641 34.0942 16.9158 34.1771 16.969 34.2588C16.9937 34.2969 17.0186 34.3347 17.0438 34.3724C17.0979 34.4533 17.1535 34.5331 17.2098 34.6123C17.2326 34.6442 17.2548 34.6764 17.2779 34.7081C17.3571 34.8162 17.4381 34.9231 17.5218 35.0279C17.5333 35.0423 17.5455 35.0563 17.5572 35.0708C17.6302 35.1612 17.7047 35.2502 17.7808 35.3379C17.8098 35.3713 17.8393 35.404 17.8687 35.4369C17.9307 35.5065 17.9937 35.5752 18.0578 35.643C18.0896 35.6766 18.1212 35.71 18.1534 35.7432C18.2247 35.8165 18.2973 35.8885 18.371 35.9596C18.395 35.9828 18.4184 36.0066 18.4426 36.0295C18.5397 36.1215 18.639 36.2116 18.7403 36.2998C18.7663 36.3225 18.7931 36.3442 18.8194 36.3666C18.8966 36.4324 18.9747 36.4974 19.054 36.561C19.0908 36.5905 19.1281 36.6195 19.1654 36.6484C19.2388 36.7055 19.3132 36.7615 19.3884 36.8165C19.4253 36.8435 19.4618 36.8706 19.4991 36.8972C19.594 36.9647 19.6903 37.0306 19.7879 37.0949C19.8045 37.1059 19.8207 37.1174 19.8374 37.1284C19.8393 37.1296 19.8411 37.1309 19.8429 37.132C19.8429 37.1322 19.8431 37.1323 19.8431 37.1326C19.8987 37.3241 19.9589 37.5144 20.0214 37.7038C20.0356 37.7467 20.0496 37.7896 20.0641 37.8323C20.1273 38.0188 20.1928 38.2043 20.2624 38.3882C20.2645 38.3937 20.2662 38.3992 20.2683 38.4047H17.6961ZM19.5791 69.8906H19.0141V61.7071H19.0139C19.0139 60.8487 19.1326 60.0097 19.353 59.2068C20.5691 63.0855 20.6417 66.6055 19.5791 69.8906ZM52.6513 59.1926C52.8705 60.0015 52.986 60.8445 52.986 61.7071V69.8906H52.4209C51.3568 66.6014 51.4308 63.0768 52.6513 59.1926ZM26.651 51.6649C26.6517 51.6592 26.6525 51.6534 26.6531 51.6475L26.7254 51.0643L29.0249 50.9302V51.0581C29.0249 51.2487 29.0765 51.4357 29.1744 51.5994L32.9523 57.9185L31.8568 57.2662C31.4674 57.0344 30.9737 57.0772 30.6301 57.3722L25.3866 61.8754L26.651 51.6649ZM31.1343 50.7669V49.8122V48.545C31.1441 48.548 31.1541 48.5505 31.1639 48.5535C31.3346 48.6046 31.5062 48.6529 31.6783 48.6986C31.719 48.7094 31.7598 48.7197 31.8004 48.7301C31.9535 48.7696 32.1072 48.807 32.2614 48.842C32.2892 48.8483 32.3169 48.8552 32.3448 48.8614C32.5197 48.9002 32.6953 48.9357 32.8714 48.9689C32.9134 48.9767 32.9555 48.9842 32.9975 48.9918C33.1588 49.0209 33.3204 49.0479 33.4827 49.0722C33.5038 49.0755 33.5249 49.0791 33.546 49.0822C33.7246 49.1082 33.9037 49.1307 34.0834 49.1511C34.1269 49.156 34.1703 49.1605 34.2138 49.1652C34.3849 49.1832 34.5566 49.1992 34.7288 49.212C34.7409 49.213 34.753 49.2141 34.7652 49.2151C34.9472 49.2282 35.1297 49.2376 35.3126 49.2449C35.3571 49.2467 35.4015 49.2483 35.4461 49.2497C35.6303 49.2556 35.8148 49.2597 35.9999 49.2597C36.1849 49.2597 36.3694 49.2556 36.5537 49.2497C36.5981 49.2483 36.6427 49.2467 36.6871 49.2449C36.8701 49.2376 37.0526 49.2283 37.2346 49.2151C37.2467 49.2143 37.2588 49.213 37.271 49.212C37.4431 49.1992 37.6148 49.1832 37.786 49.1652C37.8294 49.1605 37.8727 49.156 37.916 49.1511C38.0959 49.1307 38.2753 49.1082 38.4541 49.0822C38.4747 49.0793 38.4953 49.0756 38.5159 49.0725C38.6788 49.048 38.8409 49.0209 39.0028 48.9918C39.0444 48.9843 39.0862 48.9769 39.1277 48.969C39.3041 48.9358 39.4802 48.9002 39.6554 48.8613C39.6826 48.8552 39.7094 48.8486 39.7366 48.8424C39.8917 48.8071 40.0462 48.7696 40.2003 48.7298C40.2404 48.7195 40.2806 48.7094 40.3206 48.6987C40.493 48.6529 40.6647 48.6046 40.8357 48.5533C40.8455 48.5504 40.8555 48.548 40.8654 48.545V49.8122V50.7669L35.9999 58.9056L31.1343 50.7669ZM21.7813 69.8908V69.8906C22.9244 65.7882 22.531 61.2768 20.6066 56.449C21.4047 55.2434 22.4698 54.2191 23.7313 53.4749C23.7551 53.461 23.779 53.4472 23.8029 53.4336C23.8787 53.3897 23.9555 53.3471 24.0327 53.3052C24.105 53.2664 24.1778 53.2284 24.2514 53.1914C24.2816 53.1761 24.3117 53.1605 24.3421 53.1456L22.9582 64.3231C22.9047 64.7556 23.1226 65.1763 23.5065 65.3822C23.6631 65.4663 23.8344 65.5075 24.0046 65.5075C24.2515 65.5075 24.4963 65.4209 24.6919 65.2528L28.3659 62.0975C29.6104 65.017 31.319 67.6596 33.4007 69.8908H21.7813ZM35.9999 69.516C33.4478 67.1182 31.4082 64.0808 30.0492 60.6516L31.4289 59.4665L35.4602 61.8671C35.463 61.8688 35.4661 61.8697 35.4689 61.8713C35.4844 61.8803 35.5005 61.8879 35.5164 61.8962C35.5324 61.9045 35.5486 61.9124 35.5651 61.9199C35.5807 61.9269 35.5959 61.9346 35.6118 61.941C35.6247 61.9462 35.6381 61.9495 35.6511 61.9542C35.6575 61.9564 35.6638 61.9584 35.6701 61.9605C35.6845 61.9653 35.6985 61.9708 35.7131 61.975C35.7299 61.9798 35.7469 61.9833 35.7639 61.9872C35.7819 61.9914 35.7999 61.9948 35.8182 61.9979C35.8342 62.0007 35.8498 62.0048 35.8661 62.0069C35.8732 62.0077 35.8802 62.0075 35.8872 62.0083C35.8998 62.0096 35.9124 62.0099 35.9249 62.0108C35.9424 62.0121 35.9598 62.0139 35.9772 62.0142C35.9848 62.0144 35.9923 62.0158 36 62.0158C36.0078 62.0158 36.0152 62.0145 36.0228 62.0142C36.0404 62.0138 36.0577 62.012 36.0751 62.0108C36.0876 62.0099 36.1003 62.0097 36.1127 62.0083C36.1197 62.0076 36.1269 62.0079 36.1338 62.0069C36.1499 62.0048 36.1657 62.0007 36.1816 61.9979C36.1997 61.9947 36.2177 61.9913 36.2358 61.9872C36.2529 61.9833 36.2699 61.9798 36.2866 61.975C36.3012 61.9709 36.3153 61.9653 36.3298 61.9605C36.336 61.9584 36.3423 61.9564 36.3485 61.9542C36.3616 61.9495 36.3749 61.946 36.3879 61.941C36.4038 61.9346 36.4189 61.927 36.4346 61.92C36.451 61.9125 36.4673 61.9047 36.4835 61.8962C36.4994 61.8881 36.5154 61.8805 36.5309 61.8715C36.5337 61.8698 36.5368 61.869 36.5396 61.8673L40.5709 59.4667L41.9506 60.6517C40.5916 64.0808 38.5519 67.1182 35.9999 69.516ZM45.2748 51.0642L46.6133 61.8754L41.3696 57.3722C41.1736 57.204 40.9288 57.1177 40.6824 57.1177C40.4968 57.1177 40.3102 57.1666 40.143 57.2662L39.0475 57.9185L42.8254 51.5994C42.9231 51.4358 42.9749 51.2488 42.9749 51.0581V50.9302L45.2748 51.0642ZM50.7105 32.4394C50.7105 32.5818 50.7078 32.7241 50.7038 32.8662C50.7029 32.8982 50.7018 32.9311 50.7007 32.9638C50.6958 33.1027 50.6896 33.2415 50.6808 33.38C50.68 33.389 50.6796 33.3982 50.679 33.4072C50.6699 33.5486 50.6585 33.6898 50.6453 33.8307C50.6439 33.8455 50.6429 33.8593 50.6415 33.8743C50.6268 34.0252 50.6101 34.1757 50.591 34.3259L50.5883 34.3455C50.5499 34.6431 50.5023 34.9388 50.4459 35.2327C50.4172 35.3812 50.3862 35.5299 50.3531 35.6778C50.3512 35.6857 50.3498 35.6937 50.348 35.7016C50.3113 35.8639 50.272 36.0253 50.2304 36.1848C50.1986 36.3059 50.1652 36.4265 50.1303 36.5467C49.8856 37.389 49.5654 38.2087 49.1759 38.989C47.5718 42.2107 44.8543 44.7279 41.5233 46.0773C39.7705 46.7893 37.9121 47.1502 35.9999 47.1502C35.7608 47.1502 35.5226 47.1445 35.2854 47.1333C35.1568 47.1272 35.0286 47.1191 34.9006 47.1097C33.7295 47.0237 32.5828 46.8001 31.4726 46.4406C31.3906 46.414 31.3091 46.3859 31.2275 46.3579C31.1978 46.3478 31.168 46.3382 31.1383 46.3278C30.916 46.2497 30.6952 46.1663 30.4761 46.0773C30.4758 46.0772 30.4756 46.0772 30.4753 46.077C27.1451 44.7279 24.4277 42.2107 22.823 38.9881C22.7675 38.8768 22.7132 38.7645 22.6605 38.6516C22.2912 37.861 21.9918 37.033 21.7691 36.1851C21.7274 36.0255 21.6881 35.8639 21.6513 35.7013C21.6499 35.695 21.6488 35.6887 21.6474 35.6825C21.6139 35.5333 21.5827 35.3834 21.5538 35.2333C21.4975 34.9398 21.4498 34.6442 21.4114 34.347L21.4085 34.325C21.3894 34.175 21.3725 34.0244 21.358 33.8735C21.3567 33.8605 21.3558 33.8472 21.3545 33.8342C21.3411 33.6922 21.3297 33.5499 21.3205 33.4073C21.3199 33.3982 21.3195 33.389 21.3186 33.38C21.3099 33.2415 21.3036 33.1027 21.2988 32.9639C21.2977 32.9311 21.2966 32.8982 21.2957 32.8662C21.2916 32.724 21.289 32.5818 21.289 32.4394V28.1616H50.7105V32.4394ZM52.7832 33.5521C52.7846 33.5312 52.7857 33.5101 52.7871 33.4891C52.7881 33.4725 52.7892 33.4567 52.7901 33.4389C52.7937 33.3863 52.7966 33.3343 52.7992 33.282L52.8027 33.2137C52.803 33.2082 52.8033 33.2025 52.8036 33.1971C52.8058 33.1426 52.8068 33.0916 52.8086 33.0386C52.8099 33.0012 52.8112 32.9639 52.8122 32.9265C52.8168 32.7606 52.8199 32.5979 52.8199 32.4392V28.1614H54.4919V28.9491H54.4921C54.4921 29.739 54.3715 30.5191 54.1338 31.2681C54.0975 31.3824 54.0585 31.4954 54.017 31.6073C54.0045 31.641 53.9903 31.674 53.9774 31.7076C53.9474 31.7853 53.9175 31.8631 53.885 31.9395C53.8681 31.9792 53.8494 32.0182 53.8318 32.0577C53.8012 32.1266 53.7708 32.1958 53.7382 32.2637C53.7176 32.3063 53.6954 32.348 53.6742 32.3902C53.6421 32.4537 53.6106 32.5174 53.5769 32.5799C53.5531 32.6239 53.5277 32.6669 53.5031 32.7104C53.4696 32.7696 53.4365 32.829 53.4015 32.8873C53.3748 32.9317 53.3465 32.9752 53.3188 33.019C53.2837 33.0749 53.2488 33.1311 53.2122 33.186C53.1828 33.2301 53.1519 33.2733 53.1215 33.3169C53.0845 33.3699 53.0478 33.423 53.0096 33.4752C52.9775 33.5188 52.9441 33.5616 52.911 33.6045C52.8722 33.6548 52.8337 33.7054 52.7936 33.7548C52.7847 33.7657 52.7755 33.7763 52.7665 33.7871C52.7729 33.7092 52.7788 33.6312 52.7832 33.5521ZM57.23 35.4781C57.23 37.092 55.9173 38.4047 54.3036 38.4047H51.7316C51.7337 38.3991 51.7355 38.3932 51.7378 38.3875C51.8071 38.2042 51.8725 38.0192 51.9354 37.8333C51.9501 37.7899 51.9645 37.7463 51.9788 37.7027C52.041 37.5141 52.101 37.3247 52.1564 37.1339C52.1566 37.1333 52.1568 37.1326 52.157 37.132C52.1588 37.1308 52.1606 37.1295 52.1625 37.1284C52.1792 37.1175 52.1952 37.1059 52.212 37.0949C52.3096 37.0306 52.4059 36.9647 52.5008 36.8972C52.5381 36.8708 52.5746 36.8435 52.6115 36.8165C52.6867 36.7613 52.7611 36.7054 52.8345 36.6484C52.8718 36.6195 52.909 36.5905 52.9459 36.561C53.0252 36.4974 53.1033 36.4324 53.1805 36.3666C53.2068 36.3442 53.2336 36.3225 53.2596 36.2998C53.3607 36.2116 53.4599 36.1216 53.5572 36.0297C53.5817 36.0066 53.6051 35.9826 53.6293 35.9592C53.7027 35.8883 53.7752 35.8165 53.8462 35.7435C53.8785 35.7102 53.9103 35.6766 53.9422 35.6428C54.0061 35.5753 54.0688 35.5068 54.1307 35.4375C54.1603 35.4043 54.1901 35.3713 54.2192 35.3377C54.2949 35.2505 54.369 35.1619 54.4416 35.072C54.4537 35.0571 54.4662 35.0426 54.4781 35.0276C54.5617 34.923 54.6425 34.8162 54.7216 34.7082C54.7449 34.6763 54.7674 34.6438 54.7903 34.6115C54.8466 34.5327 54.9017 34.4534 54.9556 34.373C54.9812 34.3349 55.0063 34.2965 55.0314 34.2581C55.0841 34.1769 55.1353 34.095 55.1855 34.0121C55.206 33.9782 55.2271 33.9448 55.2472 33.9107C55.3157 33.7947 55.3824 33.6776 55.4462 33.5586C55.4528 33.5464 55.4587 33.5339 55.4653 33.5215C55.5223 33.4142 55.577 33.3058 55.6299 33.1962C55.6484 33.158 55.6661 33.1193 55.6841 33.0806C55.7066 33.0327 55.73 32.9851 55.7516 32.9368C56.6425 33.447 57.23 34.4114 57.23 35.4781Z" fill="white"/>
</g>
</g>
<g id="Group_7">
<g id="Group_8">
<path id="Vector_4" d="M25.1746 16.4431C25.1605 16.3758 25.1409 16.3095 25.1141 16.2448C25.0874 16.1816 25.0551 16.1197 25.0171 16.0634C24.9791 16.0058 24.9355 15.9509 24.8863 15.9031C24.8371 15.8539 24.7837 15.8103 24.726 15.7723C24.6683 15.7342 24.6079 15.7005 24.5446 15.6753C24.4799 15.6487 24.4138 15.6275 24.3463 15.6148C24.2099 15.5867 24.0707 15.5867 23.9343 15.6148C23.8668 15.6275 23.8007 15.6486 23.7374 15.6753C23.6727 15.7006 23.6123 15.7344 23.5546 15.7723C23.4969 15.8103 23.4435 15.8539 23.3943 15.9031C23.3465 15.9509 23.3015 16.0056 23.2635 16.0634C23.2255 16.1197 23.1932 16.1816 23.1665 16.2448C23.1398 16.3095 23.1201 16.3758 23.106 16.4431C23.0934 16.5106 23.0863 16.5795 23.0863 16.6484C23.0863 16.7173 23.0934 16.7862 23.106 16.8552C23.1201 16.9227 23.1398 16.9887 23.1665 17.052C23.1932 17.1153 23.2255 17.177 23.2635 17.2348C23.3015 17.2925 23.3465 17.3459 23.3943 17.3953C23.4435 17.4431 23.4969 17.488 23.5546 17.5261C23.6123 17.564 23.6727 17.5964 23.7374 17.623C23.8007 17.6498 23.8668 17.6694 23.9343 17.6836C24.0032 17.6962 24.0721 17.7033 24.141 17.7033C24.2099 17.7033 24.2788 17.6962 24.3463 17.6836C24.4138 17.6694 24.4799 17.6498 24.5446 17.623C24.6079 17.5964 24.6683 17.5639 24.726 17.5261C24.7837 17.488 24.837 17.4431 24.8863 17.3953C24.9355 17.3459 24.9791 17.2926 25.0171 17.2348C25.0551 17.1772 25.0874 17.1153 25.1141 17.052C25.1409 16.9887 25.1605 16.9227 25.1746 16.8552C25.1887 16.7864 25.1957 16.7175 25.1957 16.6484C25.1957 16.5795 25.1887 16.5108 25.1746 16.4431Z" fill="white"/>
</g>
</g>
<g id="Group_9">
<g id="Group_10">
<path id="Vector_5" d="M33.0806 16.4431C33.0679 16.3758 33.0468 16.3095 33.0201 16.2448C32.9948 16.1816 32.9625 16.1197 32.923 16.0634C32.885 16.0058 32.8414 15.9509 32.7922 15.9031C32.7444 15.8539 32.6895 15.8103 32.6319 15.7723C32.5756 15.7342 32.5137 15.7005 32.4505 15.6753C32.3858 15.6487 32.3197 15.6275 32.2522 15.6148C32.1172 15.5867 31.9765 15.5867 31.8401 15.6148C31.7726 15.6275 31.7065 15.6486 31.6433 15.6753C31.58 15.7006 31.5181 15.7344 31.4619 15.7723C31.4028 15.8103 31.3494 15.8539 31.3001 15.9031C31.2523 15.9509 31.2087 16.0056 31.1694 16.0634C31.1314 16.1197 31.099 16.1816 31.0723 16.2448C31.047 16.3095 31.0259 16.3758 31.0133 16.4431C30.9992 16.5106 30.9922 16.5795 30.9922 16.6484C30.9922 16.7173 30.9992 16.7862 31.0133 16.8552C31.0259 16.9227 31.047 16.9887 31.0723 17.052C31.099 17.1153 31.1314 17.177 31.1694 17.2348C31.2087 17.2925 31.2523 17.3459 31.3001 17.3953C31.3494 17.4431 31.4028 17.488 31.4619 17.5261C31.5181 17.564 31.58 17.5964 31.6433 17.623C31.7065 17.6498 31.7726 17.6694 31.8401 17.6836C31.909 17.6962 31.978 17.7033 32.0469 17.7033C32.1158 17.7033 32.1847 17.6962 32.2522 17.6836C32.3198 17.6694 32.3858 17.6498 32.4505 17.623C32.5137 17.5964 32.5756 17.5639 32.6319 17.5261C32.6895 17.488 32.7444 17.4431 32.7922 17.3953C32.8414 17.3459 32.885 17.2926 32.923 17.2348C32.9623 17.1772 32.9947 17.1153 33.0201 17.052C33.0468 16.9887 33.0679 16.9227 33.0806 16.8552C33.0947 16.7864 33.1017 16.7175 33.1017 16.6484C33.1017 16.5795 33.0947 16.5108 33.0806 16.4431Z" fill="white"/>
</g>
</g>
<g id="Group_11">
<g id="Group_12">
<path id="Vector_6" d="M40.9878 16.4431C40.9738 16.3758 40.9541 16.3095 40.9274 16.2448C40.9006 16.1816 40.8683 16.1197 40.8303 16.0634C40.7909 16.0058 40.7474 15.9509 40.6995 15.9031C40.6503 15.8539 40.5969 15.8103 40.5392 15.7723C40.4816 15.7342 40.4197 15.7005 40.3564 15.6753C40.2931 15.6487 40.227 15.6275 40.1595 15.6148C40.0231 15.5867 39.8825 15.5867 39.7475 15.6148C39.68 15.6275 39.6139 15.6486 39.5492 15.6753C39.4859 15.7006 39.4241 15.7344 39.3678 15.7723C39.3102 15.8103 39.2553 15.8539 39.2075 15.9031C39.1583 15.9509 39.1147 16.0056 39.0753 16.0634C39.0373 16.1197 39.005 16.1816 38.9797 16.2448C38.953 16.3095 38.9319 16.3758 38.9192 16.4431C38.9052 16.5106 38.8981 16.5795 38.8981 16.6484C38.8981 16.7173 38.9052 16.7862 38.9192 16.8552C38.9319 16.9227 38.953 16.9887 38.9797 17.052C39.005 17.1153 39.0373 17.177 39.0753 17.2348C39.1147 17.2925 39.1583 17.3459 39.2075 17.3953C39.2553 17.4431 39.3102 17.488 39.3678 17.5261C39.4241 17.564 39.4859 17.5964 39.5492 17.623C39.6139 17.6498 39.68 17.6694 39.7475 17.6836C39.815 17.6962 39.8839 17.7033 39.9528 17.7033C40.0217 17.7033 40.0906 17.6962 40.1595 17.6836C40.227 17.6694 40.2931 17.6498 40.3564 17.623C40.4197 17.5964 40.4816 17.5639 40.5392 17.5261C40.5969 17.488 40.6503 17.4431 40.6995 17.3953C40.7474 17.3459 40.7909 17.2926 40.8303 17.2348C40.8683 17.1772 40.9006 17.1153 40.9274 17.052C40.9541 16.9887 40.9738 16.9227 40.9878 16.8552C41.0005 16.7864 41.0075 16.7175 41.0075 16.6484C41.0075 16.5795 41.0005 16.5108 40.9878 16.4431Z" fill="white"/>
</g>
</g>
<g id="Group_13">
<g id="Group_14">
<path id="Vector_7" d="M48.8938 16.4431C48.8797 16.3758 48.86 16.3095 48.8333 16.2448C48.8066 16.1816 48.7743 16.1197 48.7363 16.0634C48.6983 16.0058 48.6533 15.9509 48.6055 15.9031C48.5563 15.8539 48.5029 15.8103 48.4452 15.7723C48.3875 15.7342 48.3257 15.7005 48.2624 15.6753C48.1991 15.6487 48.133 15.6275 48.0655 15.6148C47.9291 15.5867 47.7885 15.5867 47.6535 15.6148C47.586 15.6275 47.5199 15.6486 47.4552 15.6753C47.3919 15.7006 47.3315 15.7344 47.2738 15.7723C47.2161 15.8103 47.1627 15.8539 47.1135 15.9031C47.0643 15.9509 47.0207 16.0056 46.9827 16.0634C46.9447 16.1197 46.9124 16.1816 46.8857 16.2448C46.8589 16.3095 46.8393 16.3758 46.8252 16.4431C46.8111 16.5106 46.8041 16.5795 46.8041 16.6484C46.8041 16.7173 46.8111 16.7862 46.8252 16.8552C46.8393 16.9227 46.8589 16.9887 46.8857 17.052C46.9124 17.1153 46.9447 17.177 46.9827 17.2348C47.0207 17.2925 47.0643 17.3459 47.1135 17.3953C47.1627 17.4431 47.2161 17.488 47.2738 17.5261C47.3315 17.564 47.3919 17.5964 47.4552 17.623C47.5199 17.6498 47.586 17.6694 47.6535 17.6836C47.721 17.6962 47.7899 17.7033 47.8588 17.7033C47.9277 17.7033 47.998 17.6962 48.0655 17.6836C48.133 17.6694 48.1991 17.6498 48.2624 17.623C48.3257 17.5964 48.3875 17.5639 48.4452 17.5261C48.5029 17.488 48.5563 17.4431 48.6055 17.3953C48.6533 17.3459 48.6983 17.2926 48.7363 17.2348C48.7743 17.1772 48.8066 17.1153 48.8333 17.052C48.86 16.9887 48.8797 16.9227 48.8938 16.8552C48.9079 16.7864 48.9135 16.7175 48.9135 16.6484C48.9135 16.5795 48.9079 16.5108 48.8938 16.4431Z" fill="white"/>
</g>
</g>
<g id="Group_15">
<g id="Group_16">
<path id="Vector_8" d="M37.0334 64.2696C37.0208 64.2036 36.9997 64.1361 36.9744 64.0728C36.9476 64.0096 36.9153 63.9477 36.8773 63.8914C36.838 63.8338 36.7944 63.7789 36.7451 63.7311C36.5005 63.485 36.1362 63.3724 35.7931 63.4427C35.727 63.4555 35.6595 63.4764 35.5962 63.5018C35.533 63.5285 35.4711 63.561 35.4148 63.5988C35.3572 63.6382 35.3023 63.6818 35.2545 63.731C35.2053 63.7788 35.1617 63.8335 35.1223 63.8913C35.0844 63.9475 35.052 64.0094 35.0267 64.0727C34.9998 64.136 34.9789 64.2035 34.9662 64.2696C34.9522 64.3383 34.9451 64.4072 34.9451 64.4763C34.9451 64.5453 34.9522 64.614 34.9662 64.683C34.9789 64.7491 35 64.8166 35.0267 64.8799C35.052 64.943 35.0844 65.005 35.1223 65.0613C35.1617 65.1188 35.2053 65.1738 35.2545 65.2216C35.3023 65.2708 35.3572 65.3144 35.4148 65.3524C35.4711 65.3918 35.533 65.4242 35.5962 65.4508C35.6595 65.4761 35.727 65.4972 35.7931 65.5099C35.862 65.5241 35.9309 65.531 35.9998 65.531C36.2769 65.531 36.5497 65.4185 36.7451 65.2216C36.7944 65.1738 36.838 65.1189 36.8773 65.0613C36.9153 65.005 36.9476 64.943 36.9744 64.8799C36.9997 64.8166 37.0208 64.749 37.0334 64.683C37.0475 64.6141 37.0545 64.5453 37.0545 64.4763C37.0545 64.4072 37.0475 64.3385 37.0334 64.2696Z" fill="white"/>
</g>
</g>
<g id="Group_17">
<g id="Group_18">
<path id="Vector_9" d="M46.6668 38.6849C46.4805 38.1331 45.882 37.8374 45.3301 38.0238C44.9821 38.1415 44.7359 38.4233 44.6483 38.7537C43.9268 38.4917 43.2344 37.8317 42.5306 37.1202L42.3565 36.9437C41.6981 36.2752 41.0175 35.5839 40.1757 35.0741C38.8359 34.263 37.2079 34.917 36 36.1004C34.792 34.9171 33.1641 34.2632 31.8241 35.0741C30.9825 35.5839 30.3017 36.2752 29.6433 36.9437L29.4693 37.1202C28.7655 37.8319 28.0732 38.4914 27.3517 38.7537C27.2642 38.4231 27.0178 38.1414 26.6696 38.0237C26.1178 37.8372 25.5192 38.1331 25.3327 38.6849C25.1223 39.307 25.2415 39.9113 25.6595 40.3427C26.068 40.7643 26.6525 40.9043 27.1584 40.9043C27.4228 40.9043 27.6658 40.8661 27.8513 40.8098C29.0849 40.4356 30.068 39.5146 30.9691 38.6033L31.1461 38.4238C31.7397 37.8211 32.3003 37.2518 32.9165 36.8787C33.3167 36.6359 34.4117 37.2579 35.1191 38.3286C35.158 38.3878 35.203 38.4435 35.2544 38.4946C35.305 38.5453 35.36 38.5897 35.4183 38.6282C35.4185 38.6284 35.4185 38.6284 35.4185 38.6284C35.4203 38.6295 35.422 38.6304 35.4237 38.6315C35.451 38.6493 35.4789 38.6659 35.5076 38.681C35.5223 38.6887 35.5373 38.695 35.5522 38.7021C35.568 38.7094 35.5834 38.7173 35.5995 38.7239C35.6207 38.7326 35.6422 38.7398 35.6639 38.7471C35.6741 38.7506 35.6843 38.7545 35.6945 38.7576C35.718 38.7648 35.7416 38.7703 35.7654 38.7758C35.7747 38.7779 35.7838 38.7805 35.7932 38.7824C35.8162 38.787 35.8391 38.7901 35.8621 38.7931C35.8731 38.7945 35.8839 38.7964 35.8951 38.7976C35.9154 38.7995 35.9358 38.8004 35.9562 38.8012C35.9704 38.8018 35.9845 38.8028 35.9988 38.8028C36.0159 38.8028 36.0327 38.8016 36.0497 38.8009C36.0673 38.8001 36.0849 38.7995 36.1025 38.7978C36.1164 38.7964 36.1302 38.7942 36.1441 38.7922C36.1642 38.7894 36.1843 38.7867 36.2044 38.7828C36.2168 38.7804 36.2289 38.777 36.2411 38.7741C36.2619 38.7691 36.2828 38.7644 36.3034 38.7582C36.3171 38.7541 36.3303 38.7489 36.3438 38.7443C36.3622 38.7379 36.3806 38.7319 36.3988 38.7244C36.4185 38.7164 36.4376 38.7069 36.4567 38.6977C36.4681 38.6922 36.4796 38.6874 36.4909 38.6815C36.5833 38.633 36.6695 38.5704 36.7454 38.4944C36.7966 38.4433 36.8416 38.3876 36.8804 38.3286C37.5878 37.258 38.6822 36.6359 39.0829 36.8787C39.6991 37.2518 40.2598 37.8211 40.8533 38.4238L41.0305 38.6033C41.9317 39.5146 42.9148 40.4356 44.1482 40.8098C44.3335 40.866 44.5767 40.9043 44.8412 40.9043C45.3472 40.9043 45.9315 40.7643 46.34 40.3427C46.758 39.9113 46.8772 39.307 46.6668 38.6849Z" fill="white"/>
</g>
</g>
</g>
</svg>
