<svg width="18" height="18" viewBox="0 0 18 18" fill="none" xmlns="http://www.w3.org/2000/svg">
<g id="twitter" clip-path="url(#clip0_1_53)">
<path id="Vector" d="M17.7137 3.25521C17.3138 3.43256 16.8986 3.57246 16.4726 3.67375C16.942 3.2277 17.2949 2.66978 17.494 2.04704C17.5509 1.86925 17.3578 1.71552 17.1972 1.81071C16.6046 2.16224 15.9662 2.42595 15.2998 2.5946C15.2612 2.60439 15.2213 2.60935 15.1813 2.60935C15.0599 2.60935 14.9419 2.56427 14.849 2.48247C14.14 1.85758 13.2281 1.51343 12.2814 1.51343C11.8717 1.51343 11.4581 1.57728 11.052 1.70323C9.79366 2.09351 8.82278 3.13145 8.51817 4.41204C8.40389 4.89237 8.37295 5.37314 8.42614 5.84097C8.43224 5.89473 8.40683 5.93225 8.39116 5.94985C8.36365 5.9807 8.32463 5.99839 8.28413 5.99839C8.2796 5.99839 8.27495 5.99817 8.27034 5.99773C5.51599 5.74183 3.03223 4.41485 1.27658 2.26129C1.18705 2.15144 1.01537 2.16491 0.944011 2.28731C0.60021 2.87714 0.418523 3.55175 0.418523 4.23821C0.418523 5.29024 0.841187 6.28167 1.57535 7.00443C1.26662 6.93122 0.967797 6.81594 0.69022 6.66176C0.555929 6.58716 0.3907 6.68305 0.388812 6.83665C0.369591 8.39951 1.28461 9.79017 2.65534 10.4164C2.62773 10.417 2.60013 10.4173 2.57248 10.4173C2.3552 10.4173 2.1352 10.3964 1.91867 10.355C1.76744 10.3261 1.64039 10.4696 1.68735 10.6162C2.13226 12.0052 3.32824 13.0291 4.75944 13.2615C3.57163 14.0589 2.18839 14.4795 0.74872 14.4795L0.2999 14.4792C0.161616 14.4792 0.0446603 14.5694 0.00942008 14.7033C-0.0252936 14.8352 0.038648 14.9744 0.156569 15.043C1.77885 15.9871 3.62929 16.4861 5.50866 16.4861C7.15372 16.4861 8.69253 16.1596 10.0824 15.5158C11.3565 14.9256 12.4825 14.0819 13.4289 13.0081C14.3106 12.0079 15 10.8532 15.478 9.57622C15.9337 8.35896 16.1745 7.06012 16.1745 5.82008V5.76101C16.1745 5.5619 16.2645 5.37455 16.4216 5.24702C17.0178 4.76296 17.537 4.19314 17.9647 3.55342C18.0776 3.3845 17.8995 3.1728 17.7137 3.25521Z" fill="white"/>
</g>
<defs>
<clipPath id="clip0_1_53">
<rect width="18" height="18" fill="white"/>
</clipPath>
</defs>
</svg>
