<svg width="72" height="72" viewBox="0 0 72 72" fill="none" xmlns="http://www.w3.org/2000/svg">
<g id="visa" clip-path="url(#clip0_1_318)">
<g id="Group">
<g id="Group_2">
<path id="Vector" d="M62.3052 5.11527L25.1794 0.0418798C22.7228 -0.295098 20.4467 1.43268 20.1104 3.89228L19.3006 9.82004C19.2135 10.4555 19.6584 11.0417 20.2945 11.1281C20.9266 11.2159 21.5162 10.7704 21.6026 10.1342L22.4124 4.20714C22.5758 3.0175 23.679 2.17982 24.8652 2.34422L61.991 7.41728C63.1806 7.58066 64.0166 8.68078 63.8539 9.87007L56.5786 63.112C56.4152 64.3016 55.31 65.1383 54.1258 64.9749L51.6454 64.6362C51.0052 64.5467 50.4238 64.9936 50.3374 65.6294C50.2502 66.2649 50.6951 66.8511 51.3306 66.9375L53.811 67.2762C54.0165 67.3041 54.2211 67.3181 54.4233 67.3181C56.6371 67.3181 58.5729 65.6791 58.8803 63.4258L66.1556 10.1842C66.4919 7.72533 64.7644 5.45157 62.3052 5.11527Z" fill="white"/>
</g>
</g>
<g id="Group_3">
<g id="Group_4">
<path id="Vector_2" d="M47.7746 9.26001H10.3037C7.82127 9.26001 5.80212 11.2798 5.80212 13.7616V67.4984C5.80212 69.9808 7.82195 71.9999 10.3037 71.9999H47.7746C50.2564 71.9999 52.2755 69.9808 52.2762 67.4984V13.7616C52.2762 11.2792 50.2564 9.26001 47.7746 9.26001ZM49.9527 67.4987C49.9527 68.6996 48.9755 69.6765 47.775 69.6765H10.3037C9.10281 69.6765 8.12591 68.6993 8.12591 67.4987V13.7619C8.12591 12.561 9.10315 11.5841 10.3037 11.5841H47.7746C48.9755 11.5841 49.9524 12.5614 49.9524 13.7619V67.4987H49.9527Z" fill="white"/>
</g>
</g>
<g id="Group_5">
<g id="Group_6">
<path id="Vector_3" d="M40.6573 56.8961H16.2587C15.6174 56.8961 15.097 57.4165 15.097 58.0578C15.097 58.6991 15.6174 59.2195 16.2587 59.2195H40.6573C41.2992 59.2195 41.819 58.6991 41.819 58.0578C41.819 57.4165 41.2989 56.8961 40.6573 56.8961Z" fill="white"/>
</g>
</g>
<g id="Group_7">
<g id="Group_8">
<path id="Vector_4" d="M29.039 62.7054H16.2587C15.6174 62.7054 15.097 63.2258 15.097 63.8671C15.097 64.5084 15.6174 65.0288 16.2587 65.0288H29.039C29.681 65.0288 30.2008 64.5084 30.2008 63.8671C30.2008 63.2258 29.6803 62.7054 29.039 62.7054Z" fill="white"/>
</g>
</g>
<g id="Group_9">
<g id="Group_10">
<path id="Vector_5" d="M47.6283 20.879H10.4497C9.80841 20.879 9.28796 21.3995 9.28796 22.0408V45.2776C9.28796 45.9189 9.80841 46.4394 10.4497 46.4394H47.6286C48.2706 46.4394 48.7903 45.9189 48.7903 45.2776V22.0408C48.7903 21.3995 48.2699 20.879 47.6283 20.879ZM46.4665 44.1156H11.6114V23.2025H46.4665V44.1156Z" fill="white"/>
</g>
</g>
<g id="Group_11">
<g id="Group_12">
<path id="Vector_6" d="M26.7152 20.879H10.4497C9.80841 20.879 9.28796 21.3995 9.28796 22.0408V35.9828C9.28796 36.6241 9.80841 37.1445 10.4497 37.1445H26.7155C27.3575 37.1445 27.8772 36.6241 27.8772 35.9828V22.0408C27.8772 21.3995 27.3568 20.879 26.7152 20.879ZM25.5535 34.8211H11.6114V23.2025H25.5535V34.8211Z" fill="white"/>
</g>
</g>
<g id="Group_13">
<g id="Group_14">
<path id="Vector_7" d="M22.2552 27.8983C22.0996 27.4197 21.654 27.0953 21.1503 27.0953H20.2534C19.6465 27.0953 19.1124 26.7073 18.9248 26.13L18.6478 25.2773C18.4922 24.7987 18.046 24.4744 17.5429 24.4744C17.0398 24.4744 16.5936 24.7984 16.438 25.2773L16.1609 26.1307C15.9734 26.7079 15.4393 27.096 14.8324 27.096H13.9352C13.4321 27.096 12.9859 27.42 12.8303 27.8989C12.6747 28.3775 12.8453 28.9021 13.2527 29.1978L13.9784 29.7248C14.4692 30.0815 14.6731 30.7088 14.4856 31.2864L14.2085 32.1391C14.0533 32.6177 14.2235 33.1422 14.6309 33.438C15.038 33.7338 15.5901 33.7338 15.9965 33.438L16.7226 32.9104C17.2148 32.553 17.8741 32.5543 18.3649 32.9104L19.0906 33.4373C19.2938 33.5854 19.5335 33.6592 19.7731 33.6592C20.0124 33.6592 20.2523 33.585 20.4552 33.4373C20.8623 33.1415 21.0332 32.617 20.8776 32.1384L20.5999 31.2857C20.4127 30.7085 20.6165 30.0808 21.1077 29.7241L21.8334 29.1972C22.2398 28.9014 22.4107 28.3768 22.2552 27.8983ZM18.2363 30.382C18.0068 30.3391 17.775 30.317 17.5426 30.317C17.3108 30.317 17.0783 30.3391 16.8489 30.382C16.7907 29.9195 16.645 29.4722 16.4207 29.0634C16.8424 28.8646 17.2236 28.5882 17.5426 28.2485C17.8622 28.5882 18.2427 28.865 18.6645 29.0634C18.4401 29.4725 18.2948 29.9198 18.2363 30.382Z" fill="white"/>
</g>
</g>
<g id="Group_15">
<g id="Group_16">
<path id="Vector_8" d="M47.6283 25.5264H26.7152C26.0739 25.5264 25.5535 26.0468 25.5535 26.6881C25.5535 27.3294 26.0739 27.8498 26.7152 27.8498H47.6283C48.2702 27.8498 48.79 27.3294 48.79 26.6881C48.7903 26.0468 48.2699 25.5264 47.6283 25.5264Z" fill="white"/>
</g>
</g>
<g id="Group_17">
<g id="Group_18">
<path id="Vector_9" d="M47.6283 30.1736H26.7152C26.0739 30.1736 25.5535 30.6941 25.5535 31.3354C25.5535 31.9766 26.0739 32.4971 26.7152 32.4971H47.6283C48.2702 32.4971 48.79 31.9766 48.79 31.3354C48.79 30.6941 48.2699 30.1736 47.6283 30.1736Z" fill="white"/>
</g>
</g>
<g id="Group_19">
<g id="Group_20">
<path id="Vector_10" d="M47.6283 34.821H26.7152C26.0739 34.821 25.5535 35.3415 25.5535 35.9828C25.5535 36.6241 26.0739 37.1445 26.7152 37.1445H47.6283C48.2702 37.1445 48.79 36.6241 48.79 35.9828C48.79 35.3415 48.2699 34.821 47.6283 34.821Z" fill="white"/>
</g>
</g>
<g id="Group_21">
<g id="Group_22">
<path id="Vector_11" d="M47.6283 39.4684H10.4497C9.80841 39.4684 9.28796 39.9888 9.28796 40.6301C9.28796 41.2714 9.80841 41.7918 10.4497 41.7918H47.6286C48.2706 41.7918 48.7903 41.2714 48.7903 40.6301C48.7903 39.9888 48.2699 39.4684 47.6283 39.4684Z" fill="white"/>
</g>
</g>
</g>
<defs>
<clipPath id="clip0_1_318">
<rect width="72" height="72" fill="white"/>
</clipPath>
</defs>
</svg>
