<svg width="24" height="24" viewBox="0 0 24 24" fill="none" xmlns="http://www.w3.org/2000/svg">
<g id="vk-social-network-logo" clip-path="url(#clip0_1_58)">
<g id="Group">
<path id="Vector" d="M23.8728 17.5197C23.8437 17.457 23.8166 17.4051 23.7915 17.3635C23.3751 16.6135 22.5793 15.693 21.4047 14.6017L21.3799 14.5767L21.3675 14.5644L21.3549 14.5519H21.3423C20.8093 14.0437 20.4717 13.702 20.3303 13.5271C20.0716 13.1938 20.0137 12.8565 20.1551 12.5147C20.2549 12.2565 20.6301 11.7112 21.2797 10.878C21.6214 10.4364 21.892 10.0825 22.0918 9.81589C23.5331 7.89977 24.158 6.67535 23.9663 6.14213L23.8919 6.01753C23.8418 5.94251 23.7127 5.87388 23.5047 5.8113C23.2962 5.74884 23.0297 5.73851 22.7047 5.78014L19.106 5.80499C19.0477 5.78434 18.9645 5.78626 18.856 5.8113C18.7477 5.83633 18.6935 5.84889 18.6935 5.84889L18.6309 5.88019L18.5812 5.91778C18.5395 5.94264 18.4937 5.98637 18.4436 6.04887C18.3939 6.11115 18.3523 6.18424 18.319 6.26752C17.9272 7.27552 17.4817 8.21271 16.9818 9.07903C16.6735 9.59561 16.3904 10.0433 16.1319 10.4224C15.8737 10.8013 15.6571 11.0805 15.4823 11.2595C15.3073 11.4386 15.1493 11.5821 15.0074 11.6905C14.8657 11.799 14.7575 11.8448 14.6827 11.828C14.6076 11.8113 14.5369 11.7946 14.47 11.778C14.3534 11.703 14.2597 11.601 14.189 11.4719C14.118 11.3427 14.0702 11.1802 14.0452 10.9845C14.0204 10.7886 14.0057 10.6201 14.0015 10.4784C13.9976 10.3369 13.9994 10.1367 14.0078 9.87852C14.0165 9.62017 14.0204 9.44536 14.0204 9.35371C14.0204 9.0371 14.0265 8.69349 14.0389 8.32278C14.0515 7.95207 14.0617 7.65835 14.0703 7.44197C14.0788 7.22537 14.0827 6.9962 14.0827 6.75461C14.0827 6.51301 14.068 6.32355 14.0389 6.18603C14.0102 6.04869 13.9661 5.91538 13.9081 5.78613C13.8496 5.65702 13.7641 5.55714 13.6519 5.48624C13.5395 5.41542 13.3997 5.35923 13.2333 5.31747C12.7917 5.21755 12.2295 5.1635 11.5462 5.1551C9.99683 5.13847 9.00126 5.23852 8.55974 5.45512C8.3848 5.54664 8.22649 5.67168 8.08495 5.82985C7.93496 6.01319 7.91404 6.11325 8.02232 6.1297C8.52223 6.20459 8.87613 6.38373 9.08442 6.66694L9.15948 6.81702C9.21786 6.9253 9.27616 7.117 9.3345 7.39186C9.39275 7.66671 9.43035 7.97076 9.44689 8.30383C9.48847 8.91206 9.48847 9.43271 9.44689 9.86583C9.40518 10.2991 9.36579 10.6364 9.3282 10.878C9.2906 11.1196 9.23441 11.3154 9.15948 11.4653C9.08442 11.6152 9.03448 11.7069 9.00944 11.7402C8.98445 11.7734 8.96362 11.7944 8.94708 11.8026C8.8388 11.8441 8.72618 11.8652 8.60963 11.8652C8.4929 11.8652 8.35136 11.8069 8.18478 11.6902C8.01825 11.5735 7.84542 11.4132 7.66628 11.2091C7.48714 11.0049 7.28511 10.7196 7.0601 10.3531C6.83527 9.98658 6.60199 9.55342 6.3604 9.0536L6.16052 8.69112C6.03556 8.45793 5.86487 8.11839 5.64827 7.6728C5.43153 7.22703 5.23996 6.79584 5.07343 6.37931C5.00686 6.20437 4.90685 6.07119 4.77358 5.97954L4.71104 5.94194C4.66946 5.90868 4.60272 5.87336 4.51116 5.83572C4.41946 5.79812 4.32379 5.77116 4.22374 5.75457L0.799886 5.77943C0.450013 5.77943 0.21262 5.8587 0.0876216 6.017L0.0375959 6.09189C0.0126049 6.1336 0 6.20021 0 6.2919C0 6.38355 0.024991 6.49603 0.0750167 6.62922C0.574836 7.80392 1.11838 8.93683 1.70564 10.0281C2.29291 11.1194 2.80323 11.9985 3.23631 12.6645C3.66947 13.331 4.11099 13.9601 4.56087 14.5514C5.01076 15.1429 5.30855 15.522 5.45425 15.6885C5.60012 15.8553 5.7147 15.9801 5.79799 16.0634L6.11045 16.3632C6.31037 16.5632 6.60396 16.8027 6.99135 17.0817C7.37882 17.3609 7.80778 17.6357 8.27845 17.9067C8.7492 18.1772 9.29686 18.398 9.92172 18.5687C10.5465 18.7396 11.1546 18.8082 11.7461 18.7751H13.1832C13.4746 18.75 13.6954 18.6583 13.8455 18.5001L13.8952 18.4375C13.9286 18.3878 13.9599 18.3105 13.9888 18.2066C14.0181 18.1025 14.0326 17.9878 14.0326 17.863C14.0241 17.5048 14.0513 17.1821 14.1136 16.8947C14.1759 16.6074 14.2469 16.3908 14.3263 16.2449C14.4057 16.0992 14.4952 15.9762 14.5949 15.8765C14.6947 15.7766 14.7659 15.716 14.8077 15.6952C14.8491 15.6742 14.8823 15.66 14.9073 15.6515C15.1072 15.5849 15.3425 15.6494 15.6135 15.8453C15.8843 16.0411 16.1383 16.2828 16.3758 16.5701C16.6133 16.8577 16.8985 17.1803 17.2317 17.5384C17.5651 17.8967 17.8566 18.163 18.1064 18.3382L18.3562 18.4882C18.523 18.5882 18.7396 18.6799 19.0063 18.7631C19.2724 18.8464 19.5056 18.8672 19.7058 18.8256L22.9046 18.7757C23.221 18.7757 23.4672 18.7233 23.6419 18.6194C23.8168 18.5152 23.9208 18.4005 23.9543 18.2758C23.9877 18.1508 23.9895 18.0091 23.9607 17.8507C23.931 17.6926 23.9018 17.5821 23.8728 17.5197Z" fill="white"/>
</g>
</g>
<defs>
<clipPath id="clip0_1_58">
<rect width="24" height="24" fill="white"/>
</clipPath>
</defs>
</svg>
