<svg width="72" height="72" viewBox="0 0 72 72" fill="none" xmlns="http://www.w3.org/2000/svg">
<g id="world" clip-path="url(#clip0_1_356)">
<g id="Group">
<g id="Group_2">
<path id="Vector" d="M36.0003 9.60706C20.7817 9.60706 8.39993 21.9888 8.39993 37.2074C8.39993 52.426 20.7817 64.8076 36.0003 64.8076C51.2188 64.8076 63.6006 52.4258 63.6006 37.2072C63.6006 21.9886 51.2188 9.60706 36.0003 9.60706ZM36.0003 62.4075C22.1054 62.4075 10.8 51.1034 10.8 37.2072C10.8 23.3111 22.1054 12.007 36.0003 12.007C49.8964 12.007 61.2005 23.3111 61.2005 37.2072C61.2005 51.1034 49.8964 62.4075 36.0003 62.4075Z" fill="white"/>
</g>
</g>
<g id="Group_3">
<g id="Group_4">
<path id="Vector_2" d="M47.5829 12.1572C47.4725 12.1068 47.356 12.0719 47.2361 12.0563L46.9589 12.0191C46.5317 11.9579 46.1081 12.1366 45.8477 12.4786C45.5861 12.8206 45.5273 13.2743 45.6929 13.6714C46.5172 15.6419 47.4989 19.6247 46.2437 20.5391L43.4621 21.6514C41.3561 22.4938 39.8801 24.4282 39.6101 26.7071L39.5921 26.845C39.5261 27.3226 39.136 27.4522 38.9716 27.4859C38.674 27.5459 38.2768 27.4739 38.0488 27.0922L36.8572 25.1062C36.4191 24.3753 35.6104 23.9409 34.7704 23.9926C33.9244 24.0357 33.1768 24.5386 32.8168 25.3066C31.7452 27.595 30.4 30.8974 30.0736 33.6322C29.9728 34.4806 30.124 35.3374 30.5104 36.1115L31.894 38.8787C32.3848 39.8579 33.1373 40.6883 34.0721 41.2788C34.9337 41.8224 36.5309 42.9192 37.5485 44.148C38.7065 45.5483 40.2665 46.4533 41.9418 46.7233C41.8746 48.9709 42.0222 52.6657 43.5522 54.2977C44.0875 54.8676 44.7583 55.1809 45.501 55.2061C45.6355 55.2241 45.8719 55.2482 46.1779 55.2482C47.0683 55.2482 48.5552 55.0465 49.9147 53.9233C51.8084 52.3586 52.7792 49.6057 52.8008 45.7404L54.5193 38.0051L55.1721 39.0923C55.7025 39.9767 56.5893 40.5983 57.6021 40.7975C58.6149 40.9968 59.6708 40.7544 60.4977 40.1352L63.121 38.1671C63.4233 37.9403 63.6009 37.5851 63.6009 37.2071C63.6006 26.4949 57.3125 16.662 47.5829 12.1572ZM59.0573 38.2154C58.7693 38.4301 58.4153 38.5105 58.0636 38.4422C57.7108 38.3739 57.4143 38.165 57.2296 37.8566L55.9852 35.7818C55.5748 35.0966 54.8019 34.7365 54.0099 34.8651C53.2216 34.9935 52.5999 35.5803 52.4259 36.3604L50.4292 45.3472C50.4099 45.4324 50.4003 45.5201 50.4003 45.6077C50.4003 48.7241 49.7139 50.9513 48.4155 52.0493C47.2288 53.0526 45.8714 52.8353 45.8283 52.8294C45.6734 52.8006 45.5559 52.9254 45.3039 52.6566C44.5563 51.8585 44.1783 49.0733 44.3847 45.8813C44.4088 45.5021 44.2731 45.1241 44.0128 44.8469C43.7512 44.5673 43.3791 44.4077 42.9952 44.4077C41.65 44.4077 40.3384 43.756 39.3964 42.6196C38.2288 41.2072 36.5524 40.0072 35.3525 39.25C34.7884 38.8936 34.3349 38.3944 34.0408 37.8063L32.6572 35.039C32.4809 34.6862 32.4113 34.2974 32.4568 33.9159C32.7509 31.4607 34.0781 28.2974 34.9036 26.513L35.992 28.3262C36.712 29.5262 38.0692 30.1154 39.4541 29.8359C40.7969 29.5611 41.7857 28.5158 41.9705 27.1706L41.9956 26.981C42.16 25.583 43.0637 24.395 44.3537 23.8789L47.2469 22.7221C47.307 22.6981 47.3669 22.6681 47.4233 22.6345C49.7032 21.2498 49.4081 17.9352 48.8093 15.5088C56.241 19.9093 60.9858 27.9086 61.1934 36.6135L59.0573 38.2154Z" fill="white"/>
</g>
</g>
<g id="Group_5">
<g id="Group_6">
<path id="Vector_3" d="M30.3423 53.8527L29.6151 53.1266C28.7331 52.2434 27.7034 51.5474 26.5564 51.0553L22.8555 49.4689C21.3639 48.8294 20.4003 47.3677 20.4003 45.7442V43.9381C20.4003 42.8329 19.8579 41.7985 18.9495 41.1685C18.041 40.5397 16.8807 40.3968 15.8463 40.7833L10.0838 42.9433C9.50541 43.1606 9.18506 43.7809 9.3458 44.3785C12.0469 54.4382 20.3883 62.2491 30.5968 64.2759C30.676 64.2915 30.7552 64.2987 30.8321 64.2987C31.3589 64.2987 31.8365 63.9519 31.9865 63.4286L32.4257 61.8902C33.2416 59.0332 32.4435 55.9528 30.3423 53.8527ZM30.118 61.2304L29.9883 61.6816C21.5126 59.5997 14.6042 53.1279 11.9702 44.7999L16.6886 43.0311C16.9922 42.9159 17.3173 42.9567 17.5826 43.1414C17.8478 43.3251 18.0002 43.6155 18.0002 43.9382V45.7443C18.0002 48.3292 19.535 50.6571 21.9099 51.6748L25.6108 53.2612C26.4772 53.6332 27.2536 54.1588 27.9185 54.8236L28.6456 55.5496C30.13 57.0339 30.6951 59.2107 30.118 61.2304Z" fill="white"/>
</g>
</g>
<g id="Group_7">
<g id="Group_8">
<path id="Vector_4" d="M23.4206 13.77C23.0449 13.3068 22.3861 13.1903 21.8737 13.4963C13.9488 18.228 8.92676 26.5393 8.44076 35.7278C8.4191 36.1346 8.60515 36.5246 8.9352 36.7634C9.14277 36.9145 9.38886 36.9913 9.63847 36.9913C9.78613 36.9913 9.93365 36.9638 10.0729 36.9109L17.5165 33.9732C19.2998 33.2592 20.2202 31.2744 19.613 29.4528C19.4653 29.0075 19.5793 28.5252 19.9105 28.1928L23.3689 24.7343C24.5498 23.5548 25.2002 21.9851 25.2002 20.3147V18.7535C25.2002 16.9536 24.5678 15.1836 23.4206 13.77ZM22.8001 20.3136C22.8001 21.3433 22.3993 22.3092 21.6709 23.0364L18.2125 26.4948C17.2344 27.474 16.8984 28.8973 17.3365 30.21C17.5429 30.8281 17.2298 31.5013 16.6261 31.7425L11.0076 33.9697C11.94 26.7108 15.9889 20.2152 22.1413 16.1603C22.5709 16.9584 22.8001 17.8511 22.8001 18.7524V20.3136Z" fill="white"/>
</g>
</g>
<g id="Group_9">
<g id="Group_10">
<path id="Vector_5" d="M36.0003 0.00708008C34.7596 0.00708008 33.5079 0.0706426 32.2803 0.196643C31.6215 0.263861 31.1416 0.854205 31.2088 1.51303C31.2723 2.13108 31.7943 2.59064 32.4016 2.59064C32.4423 2.59064 32.4844 2.58825 32.5252 2.58347C33.6711 2.46703 34.84 2.40713 36.0004 2.40713C36.6628 2.40713 37.2004 1.86952 37.2004 1.20717C37.2004 0.54483 36.6626 0.00708008 36.0003 0.00708008Z" fill="white"/>
</g>
</g>
<g id="Group_11">
<g id="Group_12">
<path id="Vector_6" d="M2.87283 41.6542C2.55966 39.8013 2.40005 37.9018 2.40005 36.007C2.40005 35.6062 2.40722 35.2066 2.4217 34.807C2.44448 34.1447 1.92614 33.5902 1.26366 33.5663C0.607219 33.5316 0.0468281 34.0619 0.0229219 34.7244C0.00717187 35.1502 0 35.5774 0 36.007C0 38.035 0.170437 40.0702 0.505266 42.055C0.604828 42.6406 1.11248 43.0546 1.68722 43.0546C1.75444 43.0546 1.82166 43.0498 1.89 43.0378C2.54278 42.9274 2.98322 42.3081 2.87283 41.6542Z" fill="white"/>
</g>
</g>
<g id="Group_13">
<g id="Group_14">
<path id="Vector_7" d="M7.85057 54.3601C6.5976 52.4424 5.53925 50.3916 4.70521 48.264C4.46277 47.6472 3.76681 47.3423 3.15003 47.5848C2.53325 47.8259 2.22838 48.522 2.47081 49.1399C3.36477 51.4199 4.49877 53.6172 5.84047 55.6715C6.07082 56.0244 6.45486 56.2152 6.84608 56.2152C7.07164 56.2152 7.29974 56.1516 7.50252 56.0209C8.05686 55.6585 8.21296 54.9144 7.85057 54.3601Z" fill="white"/>
</g>
</g>
<g id="Group_15">
<g id="Group_16">
<path id="Vector_8" d="M5.09276 19.9536C4.49511 19.6692 3.77876 19.9224 3.49315 20.52C2.43594 22.734 1.60554 25.0645 1.02476 27.4452C0.867685 28.0896 1.26129 28.7388 1.90564 28.8959C2.00169 28.9187 2.09759 28.9295 2.19125 28.9295C2.73125 28.9295 3.22203 28.5611 3.35647 28.0139C3.89886 25.7928 4.67286 23.6183 5.6592 21.5532C5.94481 20.9544 5.69154 20.2392 5.09276 19.9536Z" fill="white"/>
</g>
</g>
<g id="Group_17">
<g id="Group_18">
<path id="Vector_9" d="M14.0305 8.99136C13.5948 8.49214 12.8377 8.43941 12.3372 8.87619C10.4904 10.489 8.80203 12.2962 7.31999 14.2462C6.91921 14.773 7.02116 15.5266 7.54921 15.9274C7.76633 16.0931 8.02086 16.1722 8.27399 16.1722C8.63638 16.1722 8.99399 16.0078 9.23038 15.6982C10.614 13.8767 12.1908 12.1895 13.9153 10.6846C14.4145 10.249 14.4661 9.49058 14.0305 8.99136Z" fill="white"/>
</g>
</g>
<g id="Group_19">
<g id="Group_20">
<path id="Vector_10" d="M30.1454 69.1011C27.8906 68.7039 25.6706 68.0739 23.549 67.2267C22.9322 66.9808 22.235 67.2795 21.989 67.8964C21.7431 68.5108 22.043 69.2091 22.6587 69.4552C24.9327 70.3637 27.3122 71.0392 29.729 71.4641C29.7986 71.476 29.8682 71.4821 29.9379 71.4821C30.5102 71.4821 31.0167 71.0717 31.1198 70.4909C31.2339 69.838 30.7982 69.2163 30.1454 69.1011Z" fill="white"/>
</g>
</g>
<g id="Group_21">
<g id="Group_22">
<path id="Vector_11" d="M45.2367 69.5907C45.0832 68.9451 44.4339 68.5491 43.792 68.7003C41.5743 69.2271 39.2859 69.5283 36.9892 69.5943C36.3269 69.6123 35.8049 70.1655 35.824 70.8278C35.8433 71.4782 36.376 71.993 37.0228 71.993C37.0337 71.993 37.0456 71.993 37.0588 71.9919C39.5188 71.9212 41.9704 71.5996 44.3464 71.0355C44.9908 70.882 45.3892 70.2351 45.2367 69.5907Z" fill="white"/>
</g>
</g>
<g id="Group_23">
<g id="Group_24">
<path id="Vector_12" d="M26.5838 2.47393C26.3834 1.84267 25.7079 1.49476 25.0766 1.69388C22.7414 2.43667 20.4734 3.42554 18.3362 4.63154C17.7589 4.95793 17.5561 5.68988 17.8814 6.26715C18.1022 6.6571 18.509 6.87676 18.9278 6.87676C19.127 6.87676 19.3298 6.82642 19.5157 6.72193C21.509 5.59637 23.6258 4.67359 25.8038 3.98115C26.435 3.78076 26.7842 3.1052 26.5838 2.47393Z" fill="white"/>
</g>
</g>
<g id="Group_25">
<g id="Group_26">
<path id="Vector_13" d="M17.472 64.0406C15.5664 62.7793 13.782 61.3154 12.1668 59.6907C11.7001 59.2214 10.9392 59.2179 10.47 59.6859C10.0008 60.1539 9.99838 60.9135 10.4653 61.3839C12.1956 63.1239 14.1073 64.6923 16.1472 66.0435C16.3513 66.178 16.5816 66.2428 16.8084 66.2428C17.1973 66.2428 17.5788 66.0544 17.8093 65.7041C18.1753 65.1518 18.0241 64.4067 17.472 64.0406Z" fill="white"/>
</g>
</g>
<g id="Group_27">
<g id="Group_28">
<path id="Vector_14" d="M55.0277 65.1734C54.6833 64.607 53.9453 64.4246 53.3789 64.769C52.3926 65.3667 51.3629 65.9186 50.3189 66.4118C49.7201 66.695 49.4621 67.409 49.7453 68.009C49.9505 68.4434 50.3813 68.6978 50.8313 68.6978C51.0029 68.6978 51.177 68.6605 51.3438 68.5826C52.4634 68.0546 53.5662 67.463 54.6234 66.8223C55.1897 66.4777 55.3709 65.7397 55.0277 65.1734Z" fill="white"/>
</g>
</g>
<g id="Group_29">
<g id="Group_30">
<path id="Vector_15" d="M71.7476 53.2705C71.3397 52.7461 70.5848 52.6524 70.064 53.0593L59.2639 61.4593C58.9723 61.6872 58.8007 62.0366 58.8007 62.4073V66.0073C58.8007 66.6696 59.3383 67.2073 60.0007 67.2073C60.663 67.2073 61.2006 66.6696 61.2006 66.0073V62.9941L71.5364 54.9541C72.0595 54.5474 72.1543 53.7937 71.7476 53.2705Z" fill="white"/>
</g>
</g>
<g id="Group_31">
<g id="Group_32">
<path id="Vector_16" d="M60.381 61.2684L56.781 60.0685C56.1497 59.8561 55.4718 60.1993 55.2629 60.8269C55.053 61.4556 55.3926 62.1348 56.0213 62.3449L59.6213 63.5449C59.7473 63.5869 59.8757 63.6073 60.0006 63.6073C60.5033 63.6073 60.9713 63.2894 61.1394 62.7865C61.3493 62.1576 61.0097 61.4784 60.381 61.2684Z" fill="white"/>
</g>
</g>
<g id="Group_33">
<g id="Group_34">
<path id="Vector_17" d="M69.5142 63.1597L67.1141 57.1597C67.0169 56.9161 66.8417 56.7109 66.6173 56.5765L60.6172 52.9765C60.0484 52.6358 59.3117 52.8193 58.9708 53.3881C58.6299 53.9569 58.8136 54.6937 59.3824 55.0345L65.0357 58.427L67.2857 64.0526C67.4741 64.5218 67.9241 64.8073 68.4004 64.8073C68.5492 64.8073 68.7004 64.7797 68.8456 64.7197C69.4614 64.4737 69.7601 63.7752 69.5142 63.1597Z" fill="white"/>
</g>
</g>
</g>
<defs>
<clipPath id="clip0_1_356">
<rect width="72" height="72" fill="white"/>
</clipPath>
</defs>
</svg>
